<svg width="50" height="50" viewBox="0 0 50 50" fill="none" xmlns="http://www.w3.org/2000/svg">
<g clip-path="url(#clip0_57_4120)">
<path d="M1 25.2464L11.6667 35.913C11.8986 36.1449 12.1304 36.3768 12.5942 36.3768C12.8261 36.3768 13.058 36.3768 13.2899 36.1449L24.1884 25.2464L22.5652 23.6232L13.5217 32.6667V24.7826C13.5217 15.7391 21.1739 8.08696 30.2174 8.08696C39.2609 8.08696 46.913 15.7391 46.913 24.7826C46.913 33.8261 39.2609 41.4783 30.2174 41.4783V43.5652C40.6522 43.5652 49 35.2174 49 24.7826C49 14.3478 40.6522 6 30.2174 6C19.7826 6 11.4348 14.3478 11.4348 24.7826V32.6667L2.3913 23.8551L1 25.2464Z" fill="#27251F"/>
</g>
<defs>
<clipPath id="clip0_57_4120">
<rect width="48" height="37.5652" fill="white" transform="translate(1 6)"/>
</clipPath>
</defs>
</svg>
