<svg width="50" height="50" viewBox="0 0 50 50" fill="none" xmlns="http://www.w3.org/2000/svg">
<path d="M23.4752 10.8995C23.9109 11.3351 24.5644 11.5529 25 11.5529C25.4356 11.5529 26.0891 11.3351 26.5248 10.6816C28.703 8.06777 31.9703 6.77826 35.0198 6.77826C41.1188 6.77826 45.0396 11.4614 45.0396 17.7783C45.0396 21.6991 43.7327 24.4044 40.0297 27.8895L25.2178 42.4836L25 42.7014C25 42.7014 24.7822 42.7014 24.7822 42.4836L9.9703 27.8895C6.26733 24.6222 4.9604 21.3549 4.9604 17.4341C4.9604 11.1173 9.09901 6.97866 15.198 6.97866C18.2475 6.97866 21.297 8.28559 23.4752 10.8995ZM25 9.59252C22.3861 6.54302 18.901 5.01827 15.198 5.01827C8.0099 5.01827 3 10.246 3 17.4341C3 21.7905 4.74257 25.4935 8.66337 29.4143L23.4752 44.2262C23.9109 44.6618 24.3465 44.8796 25 44.8796C25.6535 44.8796 26.0891 44.6618 26.5248 44.2262L41.3366 29.6321C45.2574 25.7113 47 22.0084 47 17.6519C47 10.246 42.2079 5.01826 35.0198 5.01826C31.5347 4.80044 27.8317 6.54302 25 9.59252Z" fill="#27251F"/>
</svg>
